<svg xmlns="http://www.w3.org/2000/svg" width="512" height="512" viewBox="0 0 512 512" role="img" aria-label="Demo bank QR">
  <rect width="512" height="512" fill="#ffffff"/>
  <rect x="24" y="24" width="464" height="464" fill="#fff" stroke="#111" stroke-width="8"/>

  <rect x="48" y="48" width="120" height="120" fill="#111"/>
  <rect x="64" y="64" width="88" height="88" fill="#fff"/>
  <rect x="80" y="80" width="56" height="56" fill="#111"/>

  <rect x="344" y="48" width="120" height="120" fill="#111"/>
  <rect x="360" y="64" width="88" height="88" fill="#fff"/>
  <rect x="376" y="80" width="56" height="56" fill="#111"/>

  <rect x="48" y="344" width="120" height="120" fill="#111"/>
  <rect x="64" y="360" width="88" height="88" fill="#fff"/>
  <rect x="80" y="376" width="56" height="56" fill="#111"/>

  <g fill="#111">
    <rect x="208" y="208" width="24" height="24"/>
    <rect x="232" y="232" width="24" height="24"/>
    <rect x="256" y="208" width="24" height="24"/>
    <rect x="280" y="232" width="24" height="24"/>
    <rect x="304" y="208" width="24" height="24"/>
    <rect x="208" y="280" width="24" height="24"/>
    <rect x="232" y="304" width="24" height="24"/>
    <rect x="256" y="280" width="24" height="24"/>
    <rect x="280" y="304" width="24" height="24"/>
    <rect x="304" y="280" width="24" height="24"/>
    <rect x="352" y="256" width="24" height="24"/>
    <rect x="376" y="280" width="24" height="24"/>
    <rect x="400" y="256" width="24" height="24"/>
    <rect x="208" y="352" width="24" height="24"/>
    <rect x="232" y="376" width="24" height="24"/>
    <rect x="256" y="352" width="24" height="24"/>
    <rect x="280" y="376" width="24" height="24"/>
    <rect x="304" y="352" width="24" height="24"/>
    <rect x="352" y="352" width="24" height="24"/>
    <rect x="376" y="376" width="24" height="24"/>
    <rect x="400" y="352" width="24" height="24"/>
  </g>

  <text x="256" y="494" text-anchor="middle" font-family="Arial, sans-serif" font-size="20" fill="#111">DEMO BANK QR</text>
</svg>
